HIERARCHY
ROOT Hips
{
	OFFSET 0.000000 88.474243 0.000000
	CHANNELS 6 Xposition Yposition Zposition Zrotation Yrotation Xrotation 
	JOINT Hips_Spine
	{
		OFFSET 0.000000 0.000000 0.000000
		CHANNELS 3 Zrotation Yrotation Xrotation
		JOINT Spine
		{
			OFFSET 0.005100 8.711998 -0.691000
			CHANNELS 3 Zrotation Yrotation Xrotation
			JOINT Spine1
			{
				OFFSET -0.009200 8.660301 -1.275000
				CHANNELS 3 Zrotation Yrotation Xrotation
				JOINT Spine2
				{
					OFFSET 0.006300 9.852501 -1.857000
					CHANNELS 3 Zrotation Yrotation Xrotation
					JOINT Spine2_Neck
					{
						OFFSET 0.000000 0.000000 0.000000
						CHANNELS 3 Zrotation Yrotation Xrotation
						JOINT Neck
						{
							OFFSET 0.016300 11.420799 -0.263300
							CHANNELS 3 Zrotation Yrotation Xrotation
							End Site #name: Head
							{
								OFFSET -0.019200 9.262405 2.362500
							}
						}
					}
					JOINT Spine2_LeftShoulder
					{
						OFFSET 0.000000 0.000000 0.000000
						CHANNELS 3 Zrotation Yrotation Xrotation
						JOINT LeftShoulder
						{
							OFFSET 5.616900 6.732201 -0.345700
							CHANNELS 3 Zrotation Yrotation Xrotation
							JOINT LeftArm
							{
								OFFSET 10.664888 -0.183372 -2.440700
								CHANNELS 3 Zrotation Yrotation Xrotation
								JOINT LeftForeArm
								{
									OFFSET 27.459126 0.000000 0.000000
									CHANNELS 3 Zrotation Yrotation Xrotation
									End Site #name: LeftHand
									{
										OFFSET 21.306858 0.000000 0.000000
									}
								}
							}
						}
					}
					JOINT Spine2_RightShoulder
					{
						OFFSET 0.000000 0.000000 0.000000
						CHANNELS 3 Zrotation Yrotation Xrotation
						JOINT RightShoulder
						{
							OFFSET -5.580300 6.737503 -0.344400
							CHANNELS 3 Zrotation Yrotation Xrotation
							JOINT RightArm
							{
								OFFSET -10.679335 -0.188484 -2.383900
								CHANNELS 3 Zrotation Yrotation Xrotation
								JOINT RightForeArm
								{
									OFFSET -27.503529 0.000000 0.000000
									CHANNELS 3 Zrotation Yrotation Xrotation
									End Site #name: RightHand
									{
										OFFSET -21.306808 0.000000 0.000000
									}
								}
							}
						}
					}
				}
			}
		}
	}
	JOINT Hips_LeftUpLeg
	{
		OFFSET 0.000000 0.000000 0.000000
		CHANNELS 3 Zrotation Yrotation Xrotation
		JOINT LeftUpLeg
		{
			OFFSET 6.857700 -6.739601 0.312100
			CHANNELS 3 Zrotation Yrotation Xrotation
			JOINT LeftLeg
			{
				OFFSET -0.367590 -34.731552 -4.572400
				CHANNELS 3 Zrotation Yrotation Xrotation
				End Site #name: LeftFoot
				{
					OFFSET 0.367590 -34.656704 -6.067400
				}
			}
		}
	}
	JOINT Hips_RightUpLeg
	{
		OFFSET 0.000000 0.000000 0.000000
		CHANNELS 3 Zrotation Yrotation Xrotation
		JOINT RightUpLeg
		{
			OFFSET -6.876100 -6.733299 0.301000
			CHANNELS 3 Zrotation Yrotation Xrotation
			JOINT RightLeg
			{
				OFFSET 0.347353 -34.795158 -4.515900
				CHANNELS 3 Zrotation Yrotation Xrotation
				End Site #name: RightFoot
				{
					OFFSET -0.347353 -34.589367 -6.070300
				}
			}
		}
	}
}
MOTION
Frames: 13
Frame Time: 0.041667
5.932903 0.809897 1.462437 -4.053922 -9.407005 -0.818809 -0.000000 -0.000000 0.000000 -0.253442 0.619543 4.358380 -0.812062 1.283685 8.823226 0.000000 0.000000 0.000000 -0.886893 1.219230 8.852816 1.441000 -2.310935 3.015867 -0.831187 1.274426 8.722049 3.010304 0.641558 0.439971 -73.841358 -11.627455 25.989385 -179.018433 -86.555592 178.780380 -0.810229 1.241865 8.671643 -3.696577 -2.103125 1.066653 79.152878 -9.611124 3.983372 -174.207669 82.932980 -174.473863 -0.000000 -0.000000 0.000000 1.452330 1.242097 -20.609042 -1.004678 0.431294 29.193791 0.000000 0.000000 -0.000000 -7.656469 0.464825 -15.794675 0.343523 -0.690331 18.474476 
6.130493 0.850596 1.490534 -3.979381 -9.609407 -0.834204 -0.000000 -0.000000 0.000000 -0.242229 0.631088 4.312757 -0.786896 1.273169 8.745204 0.000000 0.000000 0.000000 -0.873549 1.210652 8.773944 1.184749 -2.569918 3.050296 -0.806461 1.261444 8.643915 2.978065 0.625246 0.431031 -73.887990 -11.184079 25.767852 -179.221990 -86.573563 178.991467 -0.790939 1.231337 8.597799 -3.647253 -2.039296 1.063857 79.342431 -9.792282 3.691719 -173.999451 82.950994 -174.269712 -0.000000 -0.000000 0.000000 1.238665 1.180622 -20.430380 -0.966838 0.421431 28.798171 0.000000 0.000000 -0.000000 -7.818071 0.688618 -15.657151 0.330855 -0.685021 17.994614 
6.312953 0.888120 1.512153 -3.925617 -9.790003 -0.857738 -0.000000 -0.000000 0.000000 -0.229039 0.636572 4.268990 -0.761215 1.266213 8.676000 0.000000 0.000000 0.000000 -0.857668 1.200959 8.688400 1.061151 -2.718708 3.149274 -0.779956 1.252516 8.570558 2.962610 0.613822 0.423244 -73.944905 -10.777482 25.586767 -179.442021 -86.586551 179.217370 -0.774753 1.226700 8.531172 -3.611372 -1.956330 1.067101 79.516482 -9.952023 3.453235 -173.834555 82.935412 -174.110262 -0.000000 -0.000000 0.000000 1.044342 1.126257 -20.250857 -0.926485 0.417049 28.431021 0.000000 0.000000 -0.000000 -7.947832 0.897970 -15.526995 0.322690 -0.698640 17.569267 
6.479049 0.920357 1.525850 -3.897318 -9.916151 -0.893786 -0.000000 -0.000000 0.000000 -0.216235 0.636862 4.238649 -0.737196 1.262902 8.610567 0.000000 0.000000 0.000000 -0.840905 1.196160 8.606656 0.980817 -2.844203 3.230591 -0.755543 1.248732 8.507268 2.960614 0.608629 0.418375 -74.005629 -10.406139 25.438310 -179.718101 -86.596002 179.497724 -0.758925 1.227564 8.466779 -3.598141 -1.877756 1.068827 79.652450 -10.082466 3.280303 -173.688886 82.899378 -173.972491 -0.000000 -0.000000 0.000000 0.871016 1.086519 -20.058847 -0.890579 0.416480 28.064893 0.000000 0.000000 -0.000000 -8.042374 1.084005 -15.427588 0.336004 -0.718224 17.235596 
6.628903 0.945726 1.529883 -3.897459 -10.034333 -0.921089 -0.000000 -0.000000 0.000000 -0.205645 0.630126 4.220466 -0.718593 1.262999 8.551508 0.000000 0.000000 0.000000 -0.822733 1.196597 8.525226 0.922214 -2.934088 3.271269 -0.737255 1.249215 8.453451 2.965959 0.617168 0.418235 -74.066764 -10.089633 25.329649 -179.954900 -86.636761 179.734975 -0.745246 1.232800 8.412400 -3.580071 -1.800338 1.066387 79.718004 -10.188635 3.184637 -173.559319 82.858373 -173.854729 -0.000000 -0.000000 0.000000 0.721561 1.061801 -19.874336 -0.864438 0.423136 27.727252 0.000000 0.000000 -0.000000 -8.118362 1.227943 -15.365989 0.330374 -0.729457 17.013164 
6.756972 0.963853 1.525962 -3.912016 -10.168147 -0.933336 -0.000000 -0.000000 0.000000 -0.200163 0.620037 4.214152 -0.703522 1.265390 8.499891 0.000000 0.000000 0.000000 -0.806393 1.199483 8.459034 0.879622 -2.990194 3.265654 -0.724031 1.251479 8.407544 2.979641 0.634796 0.420381 -74.132070 -9.812344 25.236178 179.731167 -86.690752 -179.951868 -0.733125 1.239932 8.363860 -3.564433 -1.746625 1.057074 79.703473 -10.269427 3.134815 -173.490287 82.798420 -173.797520 -0.000000 -0.000000 0.000000 0.586554 1.053262 -19.720281 -0.847518 0.432948 27.467982 -0.000000 -0.000000 -0.000000 -8.190978 1.321299 -15.344238 0.318686 -0.734006 16.881621 
6.856929 0.974147 1.516056 -3.939420 -10.308118 -0.933790 -0.000000 -0.000000 0.000000 -0.204656 0.610382 4.195981 -0.693017 1.269839 8.450580 0.000000 0.000000 0.000000 -0.790985 1.203306 8.403229 0.856541 -3.022911 3.246712 -0.714093 1.254998 8.371943 2.995700 0.667414 0.424252 -74.198172 -9.592426 25.161335 179.343359 -86.753897 -179.567892 -0.722549 1.248429 8.325510 -3.543333 -1.729781 1.038805 79.640153 -10.297381 3.166307 -173.517620 82.726370 -173.834678 -0.000000 -0.000000 0.000000 0.463285 1.062952 -19.594704 -0.836005 0.437496 27.328799 -0.000000 -0.000000 -0.000000 -8.272898 1.363560 -15.360766 0.314501 -0.726397 16.849028 
6.921477 0.975959 1.501878 -3.959658 -10.449737 -0.935702 -0.000000 -0.000000 0.000000 -0.207908 0.602100 4.190109 -0.685470 1.274443 8.411902 0.000000 0.000000 0.000000 -0.775822 1.209320 8.365790 0.854908 -3.026639 3.216917 -0.707853 1.259486 8.346367 3.026782 0.706075 0.428494 -74.255651 -9.409680 25.115358 178.911541 -86.800121 -179.136349 -0.712573 1.257827 8.300712 -3.522942 -1.742866 1.017152 79.544620 -10.289738 3.238368 -173.631164 82.651387 -173.953170 -0.000000 -0.000000 0.000000 0.365625 1.084814 -19.518132 -0.834213 0.440071 27.262118 -0.000000 -0.000000 -0.000000 -8.374035 1.355159 -15.399130 0.322979 -0.717785 16.930550 
6.943800 0.969229 1.486247 -3.975472 -10.610440 -0.939511 -0.000000 -0.000000 -0.000000 -0.207965 0.592017 4.183493 -0.680349 1.281048 8.384188 0.000000 0.000000 0.000000 -0.759237 1.217603 8.350307 0.876687 -3.005904 3.176464 -0.702473 1.265369 8.328899 3.058598 0.754951 0.433450 -74.299598 -9.256580 25.087393 178.429202 -86.863216 -178.652754 -0.703168 1.266805 8.287058 -3.515778 -1.786413 0.992798 79.461861 -10.257166 3.320146 -173.819829 82.591295 -174.145164 -0.000000 -0.000000 0.000000 0.299235 1.121329 -19.491579 -0.846607 0.440588 27.325460 -0.000000 -0.000000 -0.000000 -8.472790 1.311975 -15.446839 0.337148 -0.710357 17.055784 
6.916996 0.956705 1.470412 -3.934319 -10.735280 -0.936900 -0.000000 -0.000000 -0.000000 -0.207737 0.582471 4.176194 -0.675944 1.287006 8.362848 0.000000 0.000000 0.000000 -0.745331 1.226857 8.346375 0.913813 -2.957673 3.127186 -0.698366 1.271426 8.315504 3.087311 0.797469 0.436629 -74.336296 -9.139093 25.090347 177.856256 -86.949390 -178.081244 -0.694436 1.275054 8.277973 -3.522543 -1.832440 0.973500 79.376244 -10.218801 3.406996 -173.997265 82.580465 -174.323646 -0.000000 -0.000000 0.000000 0.270066 1.186352 -19.509399 -0.872600 0.441953 27.471141 -0.000000 -0.000000 -0.000000 -8.561248 1.244169 -15.502088 0.354573 -0.702784 17.213312 
6.833924 0.943022 1.458569 -3.836479 -10.833255 -0.931610 -0.000000 -0.000000 -0.000000 -0.204933 0.578012 4.178160 -0.672632 1.293695 8.346781 0.000000 0.000000 0.000000 -0.733089 1.238272 8.352886 0.963898 -2.878288 3.053390 -0.694795 1.278075 8.307202 3.115789 0.836298 0.437198 -74.361030 -9.035233 25.115000 177.199035 -87.044856 -177.428839 -0.687295 1.283274 8.276554 -3.539842 -1.878223 0.963369 79.289837 -10.182984 3.509762 -174.168458 82.599643 -174.488384 -0.000000 -0.000000 0.000000 0.263980 1.260087 -19.551589 -0.895280 0.440458 27.650708 -0.000000 -0.000000 -0.000000 -8.623200 1.165621 -15.547089 0.366637 -0.686160 17.374102 
6.688692 0.931293 1.452394 -3.676171 -10.905111 -0.931725 -0.000000 -0.000000 -0.000000 -0.201185 0.576902 4.192264 -0.670210 1.300566 8.330128 0.000000 0.000000 0.000000 -0.720457 1.249666 8.359431 1.031163 -2.773133 2.951029 -0.691132 1.285053 8.302625 3.145503 0.868304 0.437462 -74.373419 -8.917645 25.149118 176.409115 -87.186369 -176.642456 -0.681351 1.291380 8.279796 -3.594273 -1.929233 0.957830 79.206866 -10.194206 3.632397 -174.322380 82.631315 -174.628800 -0.000000 -0.000000 0.000000 0.274200 1.332446 -19.600040 -0.912819 0.433829 27.816392 -0.000000 -0.000000 -0.000000 -8.653776 1.083675 -15.579193 0.374550 -0.663242 17.530549 
6.474338 0.924027 1.454014 -3.452023 -10.939358 -0.946241 -0.000000 -0.000000 -0.000000 -0.193510 0.584024 4.211550 -0.666516 1.306476 8.306484 0.000000 0.000000 0.000000 -0.704543 1.261436 8.356532 1.119500 -2.640465 2.821827 -0.684711 1.291879 8.295640 3.167477 0.886771 0.437958 -74.374333 -8.800159 25.168168 175.454737 -87.385978 -175.692099 -0.675961 1.299558 8.284696 -3.671241 -1.958794 0.961974 79.136380 -10.273552 3.746967 -174.486054 82.589280 -174.771197 0.000000 -0.000000 0.000000 0.292733 1.380078 -19.612475 -0.917281 0.423192 27.925138 -0.000000 -0.000000 -0.000000 -8.646664 1.016581 -15.572716 0.381641 -0.638423 17.651830 
